<svg width="256" height="256" viewBox="0 0 256 256" fill="none" xmlns="http://www.w3.org/2000/svg">
<rect width="256" height="256" rx="16" fill="#FFD666"/>
<path d="M100.054 107.1C100.054 102.9 98.4043 99.25 95.1043 96.15C91.9043 93.05 87.3543 91.5 81.4543 91.5C76.4543 91.5 72.5043 92.55 69.6043 94.65C66.7043 96.65 65.2543 99.4 65.2543 102.9C65.2543 104.7 65.6043 106.35 66.3043 107.85C67.0043 109.25 68.2043 110.55 69.9043 111.75C71.7043 112.85 74.0043 113.85 76.8043 114.75C79.7043 115.65 83.3543 116.5 87.7543 117.3C98.7543 119.3 107.154 122.65 112.954 127.35C118.754 132.05 121.654 139 121.654 148.2V150C121.654 154.9 120.754 159.35 118.954 163.35C117.254 167.25 114.754 170.6 111.454 173.4C108.154 176.2 104.154 178.35 99.4543 179.85C94.7543 181.35 89.4543 182.1 83.5543 182.1C76.6543 182.1 70.5543 181.15 65.2543 179.25C60.0543 177.25 55.7043 174.55 52.2043 171.15C48.7043 167.65 46.0543 163.6 44.2543 159C42.4543 154.3 41.5543 149.2 41.5543 143.7V139.2H61.3543V142.8C61.3543 149.1 63.1543 154.15 66.7543 157.95C70.4543 161.65 76.1543 163.5 83.8543 163.5C89.8543 163.5 94.3043 162.2 97.2043 159.6C100.104 157 101.554 153.9 101.554 150.3C101.554 148.6 101.254 147 100.654 145.5C100.054 143.9 99.0043 142.5 97.5043 141.3C96.0043 140 93.9543 138.85 91.3543 137.85C88.7543 136.85 85.4543 136 81.4543 135.3C76.1543 134.4 71.3043 133.25 66.9043 131.85C62.5043 130.35 58.6543 128.4 55.3543 126C52.1543 123.6 49.6543 120.6 47.8543 117C46.0543 113.4 45.1543 109 45.1543 103.8V102.9C45.1543 98.6 46.0043 94.65 47.7043 91.05C49.5043 87.35 51.9543 84.15 55.0543 81.45C58.2543 78.75 62.0543 76.65 66.4543 75.15C70.9543 73.65 75.9543 72.9 81.4543 72.9C87.6543 72.9 93.1543 73.8 97.9543 75.6C102.754 77.3 106.754 79.65 109.954 82.65C113.254 85.65 115.704 89.1 117.304 93C119.004 96.9 119.854 101 119.854 105.3V110.7H100.054V107.1ZM212.3 152.7C210.6 161.5 206.55 168.6 200.15 174C193.85 179.4 185.4 182.1 174.8 182.1C169.3 182.1 164.15 181.25 159.35 179.55C154.65 177.85 150.55 175.4 147.05 172.2C143.55 169 140.8 165.05 138.8 160.35C136.8 155.65 135.8 150.3 135.8 144.3V142.5C135.8 136.5 136.8 131.1 138.8 126.3C140.8 121.5 143.55 117.4 147.05 114C150.65 110.6 154.8 108 159.5 106.2C164.3 104.4 169.4 103.5 174.8 103.5C185.2 103.5 193.6 106.2 200 111.6C206.5 117 210.6 124.1 212.3 132.9L193.7 137.7C193.1 133.3 191.2 129.5 188 126.3C184.8 123.1 180.3 121.5 174.5 121.5C171.8 121.5 169.25 122 166.85 123C164.45 124 162.35 125.45 160.55 127.35C158.75 129.15 157.3 131.4 156.2 134.1C155.2 136.7 154.7 139.65 154.7 142.95V143.85C154.7 147.15 155.2 150.1 156.2 152.7C157.3 155.2 158.75 157.3 160.55 159C162.35 160.7 164.45 162 166.85 162.9C169.25 163.7 171.8 164.1 174.5 164.1C180.3 164.1 184.7 162.65 187.7 159.75C190.8 156.85 192.8 152.95 193.7 148.05L212.3 152.7Z" fill="black"/>
<path d="M42.736 43.952V50H19.12V43.376C19.12 41.616 19.376 40.112 19.888 38.864C20.432 37.616 21.184 36.56 22.144 35.696C23.136 34.832 24.32 34.128 25.696 33.584C27.072 33.008 28.624 32.528 30.352 32.144C31.632 31.856 32.672 31.536 33.472 31.184C34.304 30.8 34.96 30.384 35.44 29.936C35.92 29.456 36.24 28.944 36.4 28.4C36.592 27.824 36.688 27.184 36.688 26.48C36.688 25.136 36.192 24.016 35.2 23.12C34.24 22.224 32.896 21.776 31.168 21.776C29.344 21.776 27.888 22.336 26.8 23.456C25.712 24.544 25.168 26.064 25.168 28.016V30.128H18.832V27.44C18.832 25.872 19.104 24.384 19.648 22.976C20.224 21.536 21.024 20.288 22.048 19.232C23.104 18.144 24.384 17.296 25.888 16.688C27.392 16.048 29.088 15.728 30.976 15.728C32.992 15.728 34.752 16.032 36.256 16.64C37.76 17.216 39.008 17.984 40 18.944C41.024 19.904 41.776 21.024 42.256 22.304C42.768 23.552 43.024 24.848 43.024 26.192V26.768C43.024 29.584 42.224 31.92 40.624 33.776C39.056 35.632 36.48 36.976 32.896 37.808C31.392 38.16 30.144 38.528 29.152 38.912C28.192 39.264 27.44 39.664 26.896 40.112C26.352 40.56 25.968 41.056 25.744 41.6C25.552 42.112 25.456 42.704 25.456 43.376V43.952H42.736ZM58.0626 43.952V19.568H57.1986L54.0306 31.088H47.9826V30.512L52.0146 16.4H64.3986V43.952H72.7506V50H48.5586V43.952H58.0626Z" fill="black"/>
</svg>
