<svg width="256" height="256" viewBox="0 0 256 256" fill="none" xmlns="http://www.w3.org/2000/svg">
<rect width="256" height="256" rx="16" fill="#FFFF00"/>
<path d="M49.2 75H116.4V93.9H69V117.9H115.5V136.8H69V180H49.2V75ZM214.246 180H195.346V127.8C195.346 125.7 194.796 124.15 193.696 123.15C192.696 122.05 191.346 121.5 189.646 121.5C187.646 121.5 186.046 122.1 184.846 123.3C183.746 124.5 183.196 126.3 183.196 128.7V180H164.296V127.8C164.296 125.7 163.696 124.15 162.496 123.15C161.396 122.05 160.046 121.5 158.446 121.5C156.646 121.5 155.146 122.1 153.946 123.3C152.746 124.5 152.146 126.3 152.146 128.7V180H133.246V105.6H152.146V112.8H154.846C155.446 110.1 156.796 107.9 158.896 106.2C161.096 104.4 163.946 103.5 167.446 103.5C170.746 103.5 173.546 104.4 175.846 106.2C178.146 107.9 179.696 110.1 180.496 112.8H183.196C183.996 110.1 185.646 107.9 188.146 106.2C190.746 104.4 193.946 103.5 197.746 103.5C202.746 103.5 206.746 105.2 209.746 108.6C212.746 111.9 214.246 116.5 214.246 122.4V180Z" fill="black"/>
<path d="M28.672 43.952V19.568H27.808L24.64 31.088H18.592V30.512L22.624 16.4H35.008V43.952H43.36V50H19.168V43.952H28.672ZM56.0466 33.2C56.0466 32.112 56.4466 31.168 57.2466 30.368C58.0466 29.568 58.9906 29.168 60.0786 29.168C61.1666 29.168 62.1106 29.568 62.9106 30.368C63.7106 31.168 64.1106 32.112 64.1106 33.2C64.1106 34.288 63.7106 35.232 62.9106 36.032C62.1106 36.832 61.1666 37.232 60.0786 37.232C58.9906 37.232 58.0466 36.832 57.2466 36.032C56.4466 35.232 56.0466 34.288 56.0466 33.2ZM47.6946 29.456C47.6946 25.104 48.7826 21.728 50.9586 19.328C53.1666 16.928 56.2066 15.728 60.0786 15.728C63.9506 15.728 66.9746 16.928 69.1506 19.328C71.3586 21.728 72.4626 25.104 72.4626 29.456V36.944C72.4626 41.424 71.3586 44.832 69.1506 47.168C66.9746 49.504 63.9506 50.672 60.0786 50.672C56.2066 50.672 53.1666 49.504 50.9586 47.168C48.7826 44.832 47.6946 41.424 47.6946 36.944V29.456ZM60.0786 44.912C61.2306 44.912 62.1906 44.736 62.9586 44.384C63.7266 44 64.3506 43.472 64.8306 42.8C65.3106 42.128 65.6466 41.328 65.8386 40.4C66.0306 39.472 66.1266 38.448 66.1266 37.328V29.072C66.1266 28.016 66.0146 27.024 65.7906 26.096C65.5666 25.168 65.2146 24.368 64.7346 23.696C64.2546 23.024 63.6306 22.496 62.8626 22.112C62.0946 21.696 61.1666 21.488 60.0786 21.488C58.9906 21.488 58.0626 21.696 57.2946 22.112C56.5266 22.496 55.9026 23.024 55.4226 23.696C54.9426 24.368 54.5906 25.168 54.3666 26.096C54.1426 27.024 54.0306 28.016 54.0306 29.072V37.328C54.0306 38.448 54.1266 39.472 54.3186 40.4C54.5106 41.328 54.8466 42.128 55.3266 42.8C55.8066 43.472 56.4306 44 57.1986 44.384C57.9666 44.736 58.9266 44.912 60.0786 44.912ZM85.4373 33.2C85.4373 32.112 85.8373 31.168 86.6373 30.368C87.4373 29.568 88.3813 29.168 89.4693 29.168C90.5573 29.168 91.5013 29.568 92.3013 30.368C93.1013 31.168 93.5013 32.112 93.5013 33.2C93.5013 34.288 93.1013 35.232 92.3013 36.032C91.5013 36.832 90.5573 37.232 89.4693 37.232C88.3813 37.232 87.4373 36.832 86.6373 36.032C85.8373 35.232 85.4373 34.288 85.4373 33.2ZM77.0853 29.456C77.0853 25.104 78.1733 21.728 80.3493 19.328C82.5573 16.928 85.5973 15.728 89.4693 15.728C93.3413 15.728 96.3653 16.928 98.5413 19.328C100.749 21.728 101.853 25.104 101.853 29.456V36.944C101.853 41.424 100.749 44.832 98.5413 47.168C96.3653 49.504 93.3413 50.672 89.4693 50.672C85.5973 50.672 82.5573 49.504 80.3493 47.168C78.1733 44.832 77.0853 41.424 77.0853 36.944V29.456ZM89.4693 44.912C90.6213 44.912 91.5813 44.736 92.3493 44.384C93.1173 44 93.7413 43.472 94.2213 42.8C94.7013 42.128 95.0373 41.328 95.2293 40.4C95.4213 39.472 95.5173 38.448 95.5173 37.328V29.072C95.5173 28.016 95.4053 27.024 95.1813 26.096C94.9573 25.168 94.6053 24.368 94.1253 23.696C93.6453 23.024 93.0213 22.496 92.2533 22.112C91.4853 21.696 90.5573 21.488 89.4693 21.488C88.3813 21.488 87.4533 21.696 86.6853 22.112C85.9173 22.496 85.2933 23.024 84.8133 23.696C84.3333 24.368 83.9813 25.168 83.7573 26.096C83.5333 27.024 83.4213 28.016 83.4213 29.072V37.328C83.4213 38.448 83.5173 39.472 83.7093 40.4C83.9013 41.328 84.2373 42.128 84.7173 42.8C85.1973 43.472 85.8213 44 86.5893 44.384C87.3573 44.736 88.3173 44.912 89.4693 44.912Z" fill="black"/>
</svg>
