<svg width="256" height="256" viewBox="0 0 256 256" fill="none" xmlns="http://www.w3.org/2000/svg">
<rect width="256" height="256" rx="16" fill="#FFDD33"/>
<path d="M100.054 107.1C100.054 102.9 98.4043 99.25 95.1043 96.15C91.9043 93.05 87.3543 91.5 81.4543 91.5C76.4543 91.5 72.5043 92.55 69.6043 94.65C66.7043 96.65 65.2543 99.4 65.2543 102.9C65.2543 104.7 65.6043 106.35 66.3043 107.85C67.0043 109.25 68.2043 110.55 69.9043 111.75C71.7043 112.85 74.0043 113.85 76.8043 114.75C79.7043 115.65 83.3543 116.5 87.7543 117.3C98.7543 119.3 107.154 122.65 112.954 127.35C118.754 132.05 121.654 139 121.654 148.2V150C121.654 154.9 120.754 159.35 118.954 163.35C117.254 167.25 114.754 170.6 111.454 173.4C108.154 176.2 104.154 178.35 99.4543 179.85C94.7543 181.35 89.4543 182.1 83.5543 182.1C76.6543 182.1 70.5543 181.15 65.2543 179.25C60.0543 177.25 55.7043 174.55 52.2043 171.15C48.7043 167.65 46.0543 163.6 44.2543 159C42.4543 154.3 41.5543 149.2 41.5543 143.7V139.2H61.3543V142.8C61.3543 149.1 63.1543 154.15 66.7543 157.95C70.4543 161.65 76.1543 163.5 83.8543 163.5C89.8543 163.5 94.3043 162.2 97.2043 159.6C100.104 157 101.554 153.9 101.554 150.3C101.554 148.6 101.254 147 100.654 145.5C100.054 143.9 99.0043 142.5 97.5043 141.3C96.0043 140 93.9543 138.85 91.3543 137.85C88.7543 136.85 85.4543 136 81.4543 135.3C76.1543 134.4 71.3043 133.25 66.9043 131.85C62.5043 130.35 58.6543 128.4 55.3543 126C52.1543 123.6 49.6543 120.6 47.8543 117C46.0543 113.4 45.1543 109 45.1543 103.8V102.9C45.1543 98.6 46.0043 94.65 47.7043 91.05C49.5043 87.35 51.9543 84.15 55.0543 81.45C58.2543 78.75 62.0543 76.65 66.4543 75.15C70.9543 73.65 75.9543 72.9 81.4543 72.9C87.6543 72.9 93.1543 73.8 97.9543 75.6C102.754 77.3 106.754 79.65 109.954 82.65C113.254 85.65 115.704 89.1 117.304 93C119.004 96.9 119.854 101 119.854 105.3V110.7H100.054V107.1ZM141.05 162H166.25V123.6H142.85V105.6H185.15V162H206.75V180H141.05V162ZM189.8 83.55C189.8 85.55 189.4 87.45 188.6 89.25C187.9 90.95 186.9 92.45 185.6 93.75C184.3 94.95 182.75 95.95 180.95 96.75C179.25 97.45 177.45 97.8 175.55 97.8C173.55 97.8 171.7 97.45 170 96.75C168.3 95.95 166.8 94.95 165.5 93.75C164.2 92.45 163.15 90.95 162.35 89.25C161.65 87.45 161.3 85.55 161.3 83.55C161.3 81.55 161.65 79.7 162.35 78C163.15 76.2 164.2 74.7 165.5 73.5C166.8 72.2 168.3 71.2 170 70.5C171.7 69.7 173.55 69.3 175.55 69.3C177.45 69.3 179.25 69.7 180.95 70.5C182.75 71.2 184.3 72.2 185.6 73.5C186.9 74.7 187.9 76.2 188.6 78C189.4 79.7 189.8 81.55 189.8 83.55Z" fill="black"/>
<path d="M28.672 43.952V19.568H27.808L24.64 31.088H18.592V30.512L22.624 16.4H35.008V43.952H43.36V50H19.168V43.952H28.672ZM56.5266 16.4H68.5266V37.616H73.4226V43.664H68.5266V50H62.1906V43.664H47.2146V34.928L56.5266 16.4ZM52.6866 36.752V37.616H62.1906V19.568H61.3266L52.6866 36.752Z" fill="black"/>
</svg>
